<svg style="object-fit:cover" id="my-svg" version="1" baseProfile="full" width="100%" height="100%" viewBox="0 0 3440 1321" xmlns="http://www.w3.org/2000/svg"><rect width="3440" height="1321" fill="#000"/><path transform="scale(1, -1)" d="M 0,1321 V 0,528 C 212.1863247863248,503.27435897435896 424.3726495726496,478.5487179487179 602,524 C 779.6273504273504,569.4512820512821 922.6957264957266,685.0794871794873 1135,686 C 1347.3042735042734,686.9205128205127 1628.844444444444,573.1333333333332 1801,506 C 1973.155555555556,438.86666666666673 2035.9264957264963,418.38717948717954 2206,416 C 2376.0735042735037,413.61282051282046 2653.4495726495725,429.3179487179487 2877,451 C 3100.5504273504275,472.6820512820513 3270.2752136752138,500.3410256410257 3440,528 C 3440,528 3440,1321 3440,1321 Z" stroke="none" stroke-width="0" fill="#a8ffb280" class="transition-all duration-300 ease-in-out delay-150" style="transform-origin: center center;"/><path transform="scale(1, -1)" d="M 0,1321 V 0,792 C 207.94529914529915,686.5923076923077 415.8905982905983,581.1846153846153 618,625 C 820.1094017094017,668.8153846153847 1016.3829059829061,861.8538461538462 1193,891 C 1369.617094017094,920.1461538461538 1526.577777777778,785.4 1729,697 C 1931.422222222222,608.6 2179.3059829059825,566.5461538461539 2358,637 C 2536.6940170940175,707.4538461538461 2646.1982905982904,890.4153846153846 2815,935 C 2983.8017094017096,979.5846153846154 3211.900854700855,885.7923076923078 3440,792 C 3440,792 3440,1321 3440,1321 Z" stroke="none" stroke-width="0" fill="#a8ffb290" class="transition-all duration-300 ease-in-out delay-150" style="transform-origin: center center;"/><path transform="scale(1, -1)" d="M 0,1321 V 0,1188 C 202.57094017094016,1208.9256410256412 405.1418803418803,1229.8512820512822 604,1240 C 802.8581196581197,1250.1487179487178 998.0034188034188,1249.5205128205127 1178,1239 C 1357.9965811965812,1228.4794871794873 1522.8444444444444,1208.0666666666664 1732,1191 C 1941.1555555555556,1173.9333333333336 2194.6188034188035,1160.2128205128206 2386,1129 C 2577.3811965811965,1097.7871794871794 2706.6803418803415,1049.0820512820512 2872,1056 C 3037.3196581196585,1062.9179487179488 3238.6598290598295,1125.4589743589745 3440,1188 C 3440,1188 3440,1321 3440,1321 Z" stroke="none" stroke-width="0" fill="#a8ffb2ff" class="transition-all duration-300 ease-in-out delay-150" style="transform-origin: center center;"/></svg>